<svg width="107" height="106" viewBox="0 0 107 106" fill="none" xmlns="http://www.w3.org/2000/svg">
<g opacity="0.5">
<rect x="0.0157471" width="106" height="106" rx="15" fill="#EEF1F4"/>
<path d="M60.0157 43H46.0157C44.9112 43 44.0157 43.8954 44.0157 45V59C44.0157 60.1046 44.9112 61 46.0157 61H60.0157C61.1203 61 62.0157 60.1046 62.0157 59V45C62.0157 43.8954 61.1203 43 60.0157 43Z" stroke="#667080" stroke-width="2" stroke-linecap="round" stroke-linejoin="round"/>
<path d="M49.5157 50C50.3442 50 51.0157 49.3284 51.0157 48.5C51.0157 47.6716 50.3442 47 49.5157 47C48.6873 47 48.0157 47.6716 48.0157 48.5C48.0157 49.3284 48.6873 50 49.5157 50Z" stroke="#667080" stroke-width="2" stroke-linecap="round" stroke-linejoin="round"/>
<path d="M62.0157 55L57.0157 50L46.0157 61" stroke="#667080" stroke-width="2" stroke-linecap="round" stroke-linejoin="round"/>
</g>
</svg>
